PathFileType	4	(X/Y/Z)	47_1_43_p0_0-370.trc
DataRate	CameraRate	NumFrames	NumMarkers	Units	OrigDataRate	OrigDataStartFrame	OrigNumFrames
43.0	43.0	6	27	m	43.0	324	371
Frame#	Time	RHip			RKnee			RAnkle			RBigToe			RSmallToe			RHeel			LHip			LKnee			LAnkle			LBigToe			LSmallToe			LHeel			Neck			Head			Nose			RShoulder			RElbow			RWrist			RThumb			RIndex			RPinky			LShoulder			LElbow			LWrist			LThumb			LIndex			LPinky			
		X1	Y1	Z1	X2	Y2	Z2	X3	Y3	Z3	X4	Y4	Z4	X5	Y5	Z5	X6	Y6	Z6	X7	Y7	Z7	X8	Y8	Z8	X9	Y9	Z9	X10	Y10	Z10	X11	Y11	Z11	X12	Y12	Z12	X13	Y13	Z13	X14	Y14	Z14	X15	Y15	Z15	X16	Y16	Z16	X17	Y17	Z17	X18	Y18	Z18	X19	Y19	Z19	X20	Y20	Z20	X21	Y21	Z21	X22	Y22	Z22	X23	Y23	Z23	X24	Y24	Z24	X25	Y25	Z25	X26	Y26	Z26	X27	Y27	Z27	
324	7.534883720930233	0.390449076855247	0.3434570843865734	-0.16924405720625996	0.35164289940124915	0.6186423813985406	0.2097830585046735	0.319611020081752	0.8613179831014668	0.5734245048307902	0.3588054367791587	0.6842275770399194	0.64649380851646	0.40942206990374	0.7188034600117613	0.6388189310681143	0.26453333059235407	0.9815879643236344	0.6145443732171685	0.20800665217346603	0.29122717887237876	-0.14670949872279185	0.1480988304582862	0.5846442410964677	0.23906078081969515	0.12881682474552264	0.8225178841981026	0.6128496899040559	0.20980592450730268	0.6866673372388943	0.6588497700068859	0.1546256175150046	0.6770983254047879	0.6677396178510516	0.13023554544053223	0.8849746385014473	0.6314746378421335	0.31550849799178554	0.07195741826170307	-0.6239133779477267	0.34130616355454063	-0.09749263161014066	-0.8222876668159839	0.36811877853175845	-0.11665815137802575	-0.6618196338571832	0.42952734877019205	0.15894454520825696	-0.5701363438750643	0.4537902271535143	0.3649572858553094	-0.38079858838109387	0.49267825727285486	0.4774564687900844	-0.16623013209609172	0.5126454482092714	0.5219026115581608	-0.0623601697501001	0.5409382195243324	0.5160666913212568	-0.05925203969750842	0.5118177351341575	0.5461799653120981	-0.058991140409303304	0.15144041896831187	0.08920407321833611	-0.5376507551837636	0.0489922508703084	0.2548500297019877	-0.33810540934657146	0.03664991217559898	0.2712482292179775	-0.08241225511810432	0.040988505804069396	0.3047287086529139	0.0003618870217987729	0.0007797397580569371	0.31397989542751426	0.03802098545873934	-0.009785511373988072	0.32669929618285243	0.03281369688844642
325	7.558139534883721	0.3816332889363308	0.35455676403591513	-0.17117940664290882	0.35096240684336627	0.6208714901357776	0.21416234743320717	0.32065083959696444	0.8446596873252855	0.5735831882821576	0.3513847817948291	0.6849822885875443	0.6479221891887536	0.4009921767947342	0.7340807545128277	0.6405527695107911	0.26459232530346505	0.9813413146918512	0.6148023025503716	0.20794653173259553	0.2916927447250757	-0.14690060642664565	0.14809428139421363	0.5845301217742038	0.23888355315783544	0.12986214142105673	0.8205207129724725	0.6085413317929482	0.20979446717006223	0.6868497592495668	0.658817904831472	0.1432450133818	0.7069667810144891	0.6699810413095336	0.12742210786194033	0.8778346052266047	0.6316289853042834	0.31561227259244473	0.06937467794672059	-0.6267048877926646	0.34137564075829935	-0.09756843667759352	-0.8222577931857006	0.36812270984109047	-0.11855861356219775	-0.6644156092366961	0.42952310769144963	0.1588885533747578	-0.5700737487312544	0.4540020198204027	0.3637229326289831	-0.3847068014605037	0.4833869806246336	0.4871051782231124	-0.17612391588085094	0.4910832507625996	0.546960928554518	-0.07233680457513698	0.5204982850928301	0.541869209397864	-0.06316189267604637	0.4844058056770533	0.5787440303147575	-0.06760302056472615	0.1515886030156686	0.08886899831849758	-0.5374539260500923	0.05046568352913476	0.23814763253933835	-0.3408397196888281	0.036337681580306536	0.2942395690229612	-0.0999043835744832	0.04551444040100842	0.30520582412329816	-0.008212188232235422	-0.0058134563728419195	0.31970166080540535	0.02059298328645327	-0.0024042971987180213	0.3148494711700529	0.01614812176006565
326	7.5813953488372094	0.3731818503994317	0.36463228446099827	-0.18098324862152412	0.347970558850155	0.6165376368552593	0.21536222237059752	0.32070180623327554	0.8448599012113464	0.5736852768836451	0.3597996991346563	0.6699888704049165	0.6460726146747305	0.4094734064032489	0.7186982289550043	0.6387108641270073	0.26460438932539093	0.9815262164633421	0.6147677663918788	0.1977641608258979	0.31546846002339446	-0.15583498378452268	0.14801277716561412	0.5845245787590704	0.23885630113184472	0.12988684250227167	0.8204560512074593	0.6085369332341911	0.21094665642374524	0.6728159481956875	0.6582960965193109	0.1443983870788294	0.7045664251562578	0.6661528981166874	0.12740924812938872	0.8777977840755479	0.6316591091227498	0.3156086264147909	0.07162715198031168	-0.6238550134434196	0.34141098641399	-0.09753282017525365	-0.8222854562687787	0.3681065125568992	-0.11851609098669708	-0.6644960418318988	0.42953880106054254	0.1588061276155608	-0.5700549151479368	0.45404343344623044	0.35973563659246266	-0.3914521282759351	0.47465470998941994	0.4882365181512486	-0.17536841948159032	0.4785934352332662	0.5568454677866485	-0.0801457547316447	0.49837216845780735	0.5667049548581459	-0.07310883533046218	0.47198948170846594	0.5898321795293958	-0.07225701091784523	0.15153222460606322	0.09108956206961774	-0.5347990639524695	0.048401305207750454	0.2532201994084564	-0.34207462970303476	0.03190033450359689	0.324750900796155	-0.10316234733414455	0.043560255329196586	0.3200165049457506	-0.011290547878042909	0.0017628801238460338	0.3180830532804909	0.01580786032774227	-0.0021970647472413303	0.31579391884255736	0.016215657249185587
327	7.604651162790698	0.38174860853970155	0.3512983071947319	-0.1785413061517502	0.35173714596183586	0.6186100925359945	0.20985038434600717	0.31967362512656633	0.8612121170044664	0.5735458429904451	0.3597975650749823	0.6699916998612544	0.6459570843781957	0.4094530997763108	0.7187975690030531	0.6386738788905423	0.2643391478686741	0.982002019090415	0.6144927558867315	0.2065746102326878	0.3042574731850803	-0.15389191263173638	0.1478946828748643	0.5809608853047277	0.23518698996955636	0.1299049601145492	0.8200507832318773	0.6083457670308556	0.21068690367708695	0.6850571093515802	0.654733266225768	0.14444574420267267	0.7045606347293337	0.6660738776164221	0.12739672370439217	0.8777634828698352	0.6315664586350426	0.3157176898754144	0.07158512623887651	-0.6238240359869	0.3486495498549451	-0.10643496864043141	-0.8174531056234444	0.36810414289729304	-0.11856737883797726	-0.6644289380791554	0.4297229937068248	0.15862636657856452	-0.5699270722057266	0.4535560339904986	0.35977806997509537	-0.39164004879262493	0.4710089754843462	0.4991345552501461	-0.17802861099801237	0.46616320080478557	0.5683609197508324	-0.08217412519088056	0.4718100729671362	0.588493631940789	-0.07478213849011332	0.47100037859132765	0.5890425218789151	-0.07521575804016636	0.15159711198471576	0.08894946906072772	-0.5374296006414934	0.04843532377989117	0.2504463298973432	-0.3449647434135564	0.030339697855691402	0.3342894833411397	-0.11340273977128904	0.03728610920594232	0.35731586466587023	-0.026302683886568725	0.008718945201602374	0.3246779633180169	0.013747736299604447	0.006984827447613359	0.33100543359354917	0.008258339550667335
328	7.627906976744186	0.38978619023636046	0.33907647801684954	-0.1755602100809673	0.34912223409857934	0.6152658055423137	0.2143155061487105	0.32056654799326467	0.8448388313480352	0.5736201002600936	0.35145066088440013	0.6851336106723037	0.6478033066129618	0.4009792574434897	0.7342875892728358	0.6405535589147185	0.26448574182465445	0.9808242110443514	0.6152080629924962	0.1946694436888996	0.3152575855275234	-0.15195444602173366	0.14845480304831915	0.5760099101058758	0.22774301143118525	0.12960870028640753	0.8158814594166282	0.6039516268071339	0.21088124873567504	0.6850684158300584	0.6546890460996553	0.14343737355160896	0.7045442556618471	0.6618841168892176	0.1266501179354098	0.876822084734014	0.6272035538664562	0.3156569440087016	0.07158363810468485	-0.6237212022348568	0.34866627764469366	-0.10642055295853443	-0.8174259483914342	0.36797815725588534	-0.11650828794133687	-0.6618947308413292	0.42949702961070374	0.14797670002159843	-0.5656470783497273	0.4536698469570416	0.3580749740709141	-0.39525846647140433	0.46321042431988696	0.4976261036667951	-0.1809582896789368	0.46444495467949215	0.5656932599039826	-0.08651578039639614	0.4668373294329628	0.5724711721929054	-0.07479960263438144	0.4584403436616426	0.5837064286639028	-0.07711949494819186	0.15147786057025298	0.09109259914925316	-0.5347683700191556	0.04837498990782928	0.25113566947556476	-0.34525070105503797	0.03162777901569226	0.35124507852667564	-0.1178961644958235	0.030497391513623295	0.3995837836992927	-0.034716755620618024	0.005148837743052805	0.420065748139223	-0.005710862853058665	0.012784278152951276	0.3698590903559394	-0.0003994884389633383
329	7.651162790697675	0.3899038690989425	0.3538559638507144	-0.17073066481535887	0.3514337866062472	0.6082501293989726	0.21990292331114594	0.3207557342102194	0.8444332045364066	0.573799709530113	0.36017031574269126	0.6736722486010965	0.6494685017171651	0.4099330972420057	0.7225789207383316	0.6426744995693616	0.2646350921987929	0.9803770092317674	0.6154104392347344	0.2069878930549317	0.30781122753455387	-0.1436463454081822	0.1478139473415901	0.5777769520654954	0.2316799158014696	0.12961550182443554	0.8157988801927288	0.6040753671077375	0.2120076184163295	0.6710568378691064	0.6543117744456546	0.1443785638926863	0.705099281689127	0.6660893112257108	0.126558251351311	0.8770954181820648	0.6274489147062403	0.31568393202103623	0.07142978871505531	-0.6236182416557369	0.3487687040371953	-0.10655746711437304	-0.8173347751758298	0.3679580046038458	-0.11645179619446797	-0.6617813237735095	0.42947923885236117	0.14797971597765067	-0.5655921070540452	0.45355904298974764	0.35809381964283343	-0.3950419426917546	0.4622338179117237	0.4992128049894351	-0.17816170575725346	0.45042862277206064	0.5810361483406614	-0.08599551353080814	0.4559965172116602	0.5864070533086823	-0.07768171842423124	0.4561424822683087	0.5846026068722111	-0.08123779085656027	0.1489222486825186	0.08900299601381591	-0.5296244342897934	0.051810878246408475	0.25601210620118514	-0.34294924938054944	0.03203476374025647	0.3519825773275737	-0.11822587921232931	0.03443594362122204	0.40244573085738955	-0.035893965679161824	0.009524424917640235	0.42301221165244746	-0.011335449182208635	0.005507905068245702	0.4169179058761837	-0.010594094746224848
